<svg xmlns="http://www.w3.org/2000/svg" version="1.1" xmlns:xlink="http://www.w3.org/1999/xlink" width="2000" height="204" viewBox="0 0 2000 204"><svg xml:space="preserve" width="2000" height="204" data-version="2" data-id="lg_FILmCkYWOoDyCr4zo5" viewBox="0 0 557 204" x="0" y="0"><rect width="100%" height="100%" fill="transparent"></rect><path fill="#fff" d="M66.175 200.845 5.365 74.405h24.69l24.48 52.18q3.42 7.03 6.43 13.85 3.01 6.83 5.82 16.66 3.01-9.83 6.12-16.76 3.11-6.92 6.32-13.75l24.69-52.18h23.08Z"></path><rect width="121.63" height="126.44" x="-60.81" y="-63.22" fill="none" rx="0" ry="0" transform="translate(66.68 138.13)"></rect><path fill="#fff" d="M222.315 197.235q-17.26 0-31.61-8.03-14.35-8.03-22.58-22.08l13.25-26.29q2.2 15.46 13.74 25.69 11.54 10.24 27.2 10.24 11.44 0 20.77-5.52t14.75-14.75q5.42-9.23 5.42-20.67 0-11.24-5.52-20.57-5.52-9.34-14.75-14.86t-20.67-5.52q-5.62 0-10.54 1.41-4.92 1.4-8.93 3.61l34.32-66.43h-55.79v-19.26h89.1l-33.91 63.21q13.44 2.61 24.38 10.84t17.46 20.37q6.52 12.14 6.52 27.2 0 17.26-8.43 31.2-8.42 13.95-22.67 22.08-14.25 8.13-31.51 8.13"></path><rect width="116.8" height="183.03" x="-58.4" y="-91.52" fill="none" rx="0" ry="0" transform="translate(227.03 106.22)"></rect><path fill="#fff" d="M347.735 194.825V2.155h21.68v192.67Z"></path><rect width="21.68" height="192.67" x="-10.84" y="-96.33" fill="none" rx="0" ry="0" transform="translate(359.07 98.99)"></rect><path fill="#fff" d="M487.215 197.235q-17.46 0-31.91-8.43t-22.98-22.68q-8.53-14.25-8.53-31.51 0-17.46 8.53-31.61 8.53-14.15 22.98-22.58 14.45-8.42 31.91-8.42 17.66 0 32.01 8.42 14.35 8.43 22.88 22.58 8.53 14.15 8.53 31.61 0 17.26-8.53 31.51t-22.88 22.68q-14.35 8.43-32.01 8.43m0-20.47q11.64 0 21.07-5.72t15.05-15.25q5.62-9.54 5.62-21.18t-5.62-21.17q-5.62-9.53-15.05-15.25-9.43-5.72-21.07-5.72t-21.08 5.72q-9.43 5.72-15.05 15.25-5.62 9.53-5.62 21.17 0 11.64 5.62 21.18 5.62 9.53 15.05 15.25 9.44 5.72 21.08 5.72"></path><rect width="126.84" height="125.23" x="-63.42" y="-62.62" fill="none" rx="0" ry="0" transform="translate(487.71 135.12)"></rect></svg></svg>